<svg width="10" height="6" viewBox="0 0 10 6" fill="none" xmlns="http://www.w3.org/2000/svg">
<path d="M4.80655 5.77L1.09155 1.312C0.994231 1.19516 0.932226 1.053 0.912803 0.902185C0.89338 0.751368 0.917343 0.598139 0.981883 0.460453C1.04642 0.322767 1.14887 0.206326 1.27721 0.124776C1.40556 0.0432255 1.55449 -5.69899e-05 1.70655 5.63173e-08H8.29055C8.44253 0.000132974 8.59132 0.0435533 8.71952 0.125178C8.84772 0.206803 8.95001 0.323256 9.01443 0.460905C9.07885 0.598555 9.10273 0.751706 9.08327 0.902433C9.06381 1.05316 9.00182 1.19522 8.90455 1.312L5.19055 5.77C5.16709 5.79814 5.13773 5.82077 5.10455 5.8363C5.07137 5.85184 5.03518 5.85989 4.99855 5.85989C4.96192 5.85989 4.92573 5.85184 4.89255 5.8363C4.85937 5.82077 4.83001 5.79814 4.80655 5.77Z" fill="#303030"/>
</svg>
